<svg xmlns="http://www.w3.org/2000/svg" width="570" height="720"><path d="M158 2c-3 0-7 1-12 5-10-5-21-6-30 2-15-1-19 2-23 7-3 0-24-3-33 11-24-3-32 14-23 30-5 7-10 14 1 29-4 8-1 16 8 27-2 11 3 19 12 25-2 16 14 25 18 28 2 9 6 17 24 22 3 13 14 15 24 18-35 20-64 47-64 112l-5 9c-40 24-75 101-20 164 4 20 10 34 16 50 8 63 61 92 75 96 20 15 42 30 72 41 28 28 58 39 88 39h2c30 0 60-11 88-39 30-11 51-26 72-41 14-4 67-33 75-96 6-16 12-30 15-50 56-63 20-140-19-164l-5-9c0-65-30-92-64-112 10-3 21-5 24-18 18-5 22-13 24-22 4-3 20-12 18-28 9-6 14-14 12-25 9-11 11-19 7-27 12-15 7-22 2-29 8-16 1-33-23-30-9-14-30-11-33-11-4-5-8-8-23-7-9-8-20-7-31-2-13-11-21-2-31 1-15-5-19 2-27 4-17-3-22 5-30 13h-9c-26 15-39 45-43 61-5-16-17-46-43-61h-9c-9-8-14-16-31-13-7-2-11-9-26-4-7-2-13-7-20-6z"/><path d="M107 68c68 35 108 63 129 88-11 44-68 46-90 45 5-2 8-5 10-8-6-4-24-1-38-8 5-1 8-2 10-6-12-4-26-7-33-14 4 0 8 1 13-3-11-6-23-10-32-20 6 0 12 0 14-2-10-6-19-13-26-21 8 1 11 0 13-1-7-8-17-15-22-24 6 2 12 3 16 0-3-6-14-10-21-24 7 1 13 2 15 0-3-11-8-18-13-25 13 0 34 0 33-1l-9-9c14-3 27 1 37 4 4-4 0-8-6-12 12 1 22 4 31 7 5-4-3-9-7-13 17 3 24 8 32 13 5-6 0-10-4-14 13 5 20 11 27 17 2-3 6-6 2-13 9 5 16 11 21 18 6-3 3-8 3-13 10 8 16 16 24 24l4-10c22 22 55 78 8 100-40-33-88-57-141-75zM468 68c-68 35-108 63-129 88 11 44 69 46 90 45-4-2-8-5-9-8 5-4 24-1 37-8-5-1-8-2-10-6 13-4 26-7 34-14-4 0-8 1-14-3 11-6 23-10 32-20-6 0-12 0-14-2 11-6 19-13 26-21-8 1-11 0-13-1 8-8 17-15 22-24-6 2-11 3-15 0 2-6 13-10 20-24-6 1-13 2-14 0 3-11 8-18 12-25-13 0-33 0-32-1l8-9c-13-3-27 1-36 4-5-4 0-8 5-12-11 1-21 4-30 7-5-4 3-9 7-13-18 3-25 8-32 13-5-6-1-10 3-14-13 5-20 11-27 17-2-3-6-6-1-13-10 5-17 11-22 18-5-3-3-8-3-13-10 8-16 16-23 24-2-1-3-5-4-10-23 22-55 78-9 100 40-33 88-57 141-75z" fill="#75a928"/><path d="M370 520a81 75 0 11-163 0 81 75 0 11163 0zM241 306a86 73-56 11-95 144 86 73-56 1195-144z" fill="#bc1142"/><path d="M332 302a73 86-34 1095 144 73 86-34 10-95-144zM73 342c36-10 12 151-17 138-33-27-44-103 17-138z" fill="#bc1142"/><path d="M494 340c-37-10-13 151 17 138 33-27 43-103-17-138zM370 221c63-11 115 26 113 95-2 26-136-91-113-95zM196 219c-62-11-115 26-113 95 2 26 137-91 113-95zM287 203c-38-1-74 28-74 44 0 21 30 41 74 42 45 0 74-17 74-38 0-23-41-49-74-48zM289 619c33-1 76 11 77 27 0 15-40 50-79 49-41 2-80-33-80-45 0-18 49-32 82-31zM168 525c23 28 34 77 15 92-19 11-63 6-95-39-22-38-19-77-4-89 23-13 57 5 84 36zM405 516c-25 30-39 84-21 101 18 13 65 11 100-37 25-32 17-87 2-101-21-17-52 5-81 37z" fill="#bc1142"/></svg>